<svg width="156" height="156" viewBox="0 0 156 156" fill="none" xmlns="http://www.w3.org/2000/svg">
<rect width="156" height="156" rx="78" fill="#4D0EA7"/>
<path d="M72.1949 27.1735C68.2582 27.9161 61.7395 29.1262 58.2119 30.8406L58.8301 29.8322C56.8389 30.7149 54.9258 31.7669 53.1115 32.9767L53.3842 31.7574C48.996 34.2333 45.1685 37.6057 42.1469 41.6587L41.6377 39.8251C33.5643 48.6812 33.6098 56.8131 33.3916 56.9965L32.2096 55.2271C28.7275 61.1128 29.6367 70.6566 30.5459 72.2243L27.5274 68.4838C25.8182 77.6058 26.9092 87.0853 30.4004 93.567L27.5638 90.5783C28.2184 96.4182 29.8731 99.0035 29.9822 99.1594L26 96.5924C27.4274 107.869 38.8284 116.019 38.8284 116.019L35.4008 115.735C38.1283 118.614 43.9107 121.08 43.9107 121.08H41.1286C54.5207 129.954 78.0045 130 78.0045 130C78.0045 130 101.479 130 114.871 121.08H112.089C112.089 121.08 117.853 118.614 120.599 115.735L117.172 116.019C117.172 116.019 128.573 107.869 130 96.5924L126.009 99.1594C126.109 99.0035 127.763 96.409 128.418 90.5783L125.581 93.567C129.118 87.0853 130.127 77.6058 128.454 68.4838L125.409 72.2243C126.318 70.6566 127.3 61.1128 123.772 55.2271L122.59 56.9965C122.372 56.8131 122.418 48.6812 114.344 39.7976L113.835 41.6312C110.819 37.5801 106.997 34.2079 102.616 31.7299L102.889 32.9492C101.074 31.7394 99.1611 30.6874 97.1699 29.8047L97.7608 30.7764C92.4876 28.2645 81.814 26.33 75.6771 26L72.1949 27.1735ZM60.4666 96.9408C60.0302 100.085 54.7389 101.277 51.8477 97.7475C49.4202 94.768 52.0568 91.1834 52.0568 91.1834C51.2204 88.4788 45.238 88.0755 45.238 88.0755C48.2695 87.5382 51.3837 87.7266 54.3297 88.6255C58.121 89.9457 61.0485 92.7786 60.4666 96.9408ZM88.2782 117.202C85.5998 119.883 82.4648 122.057 79.0228 123.619C78.3668 123.887 77.6332 123.887 76.9772 123.619C73.5366 122.055 70.4019 119.881 67.7218 117.202C65.4125 114.974 64.2579 113.305 64.2579 111.233C64.2971 110.323 64.5296 109.432 64.9398 108.621C65.9418 106.325 67.4128 104.267 69.2567 102.583C71.1006 100.899 73.2759 99.6265 75.6407 98.8477C77.1743 98.3467 78.8257 98.3467 80.3593 98.8477C82.7241 99.6265 84.8994 100.899 86.7433 102.583C88.5872 104.267 90.0582 106.325 91.0602 108.621C91.4742 109.441 91.7068 110.341 91.7421 111.261C91.7421 113.305 90.5966 114.974 88.2782 117.202ZM104.189 97.7475C101.297 101.277 96.0061 100.085 95.5697 96.9408C94.9878 92.7786 97.9154 89.9457 101.734 88.6255C104.68 87.7266 107.794 87.5382 110.826 88.0755C110.826 88.0755 104.843 88.4788 104.007 91.1834C103.943 91.1834 106.58 94.7588 104.189 97.7475Z" fill="white"/>
</svg>
